<?xml version="1.0" standalone="no"?>
<!DOCTYPE svg PUBLIC "-//W3C//DTD SVG 20010904//EN"
 "http://www.w3.org/TR/2001/REC-SVG-20010904/DTD/svg10.dtd">
<svg version="1.0" xmlns="http://www.w3.org/2000/svg"
 width="80.000000pt" height="80.000000pt" viewBox="0 0 80.000000 80.000000"
 preserveAspectRatio="xMidYMid meet">
<metadata>
Created by potrace 1.14, written by Peter Selinger 2001-2017
</metadata>
<g transform="translate(0.000000,80.000000) scale(0.100000,-0.100000)"
fill="#000000" stroke="none">
<path d="M417 498 c2 -73 7 -180 10 -238 7 -97 8 -101 14 -50 l6 55 1 -52 c2
-52 3 -53 33 -53 29 0 30 2 27 37 -2 25 -10 41 -23 48 -19 9 -20 19 -17 154 2
89 -1 148 -8 155 -5 5 -10 17 -10 26 0 9 -8 24 -18 34 -18 16 -19 12 -15 -116z"/>
</g>
</svg>
